<svg version="1.1" viewBox="0 0 96 96" xmlns="http://www.w3.org/2000/svg" xmlns:xlink="http://www.w3.org/1999/xlink" id="Icons" overflow="hidden"><style>
.MsftOfcThm_Text1_Fill {
 fill:#000000; 
}
.MsftOfcThm_MainDark1_Stroke {
 stroke:#000000; 
}
</style>
<path d=" M 90.6 80 L 51.5 12 C 50 9.3 46.1 9.3 44.6 12 L 5.4 80 C 3.9 82.7 5.8 86 8.9 86 L 48 86 L 87.1 86 C 90.2 86 92.1 82.7 90.6 80 Z M 45 28 L 51 28 L 51 63 L 45 63 L 45 28 Z M 48 77 C 45.2 77 43 74.8 43 72 C 43 69.2 45.2 67 48 67 C 50.8 67 53 69.2 53 72 C 53 74.8 50.8 77 48 77 Z" class="MsftOfcThm_Text1_Fill MsftOfcThm_MainDark1_Stroke" stroke="#000000" stroke-width="2.86567" stroke-linecap="butt" stroke-dasharray="" stroke-dashoffset="1" stroke-opacity="1" fill="#000000" fill-opacity="1"/></svg>